<svg version="1.1" viewBox="0 0 512 512" xmlns="http://www.w3.org/2000/svg" xmlns:xlink="http://www.w3.org/1999/xlink"><defs><linearGradient id="linearGradient238" x2="512" y2="512" gradientUnits="userSpaceOnUse"><stop stop-color="#11d4d4" offset="0"/><stop stop-color="#1173d4" offset="1"/></linearGradient></defs><path d="m128 0h256c70.912 0 128 57.088 128 128v256c0 70.912-57.088 128-128 128h-256c-70.912 0-128-57.088-128-128v-256c0-70.912 57.088-128 128-128z" fill="url(#linearGradient238)"/><path d="m228 64c-2.216 0-4 1.784-4 4v88c0 2.216-1.784 4-4 4h-88c-2.216 0-4 1.784-4 4v56c0 2.216 1.784 4 4 4h88c2.216 0 4 1.784 4 4v216c0 2.216 1.784 4 4 4h56c2.216 0 4-1.784 4-4v-216c0-2.216 1.784-4 4-4h88c2.216 0 4-1.784 4-4v-56c0-2.216-1.784-4-4-4h-88c-2.216 0-4-1.784-4-4v-88c0-2.216-1.784-4-4-4h-56z" fill="#fff"/></svg>
